<?xml version="1.0" encoding="UTF-8"?><svg id="_レイヤー_2" xmlns="http://www.w3.org/2000/svg" viewBox="0 0 45.63 19.52"><defs><style>.cls-1{fill:#ea5856;}.cls-2{fill:#4b58a6;}</style></defs><g id="_レイヤー_1-2"><g><path class="cls-1" d="M8.38,10.78c.51,0,.83,.29,.83,.67,0,.42-.83,1.5-1.5,2.78-.38,.7-.58,1.34-.58,1.82,0,.42,.13,.77,.42,.77,1.15,0,3.07-2.05,4.26-3.58,.35-.48,.64-.8,.96-.8s.45,.19,.45,.45c0,.29-.13,.48-.48,.93-1.54,1.82-4.03,4.29-5.63,4.29-.99,0-1.5-.7-1.5-1.5,0-.35,.06-.8,.06-1.09,0-.19,0-.29-.06-.29-.19,0-.7,.61-1.41,1.25-1.5,1.31-2.5,1.95-3.23,1.95-.32,0-.96-.48-.96-1.25,0-3.26,3.49-6.43,6.11-6.46,.61,0,1.18,.74,1.31,.74,.26,0,.42-.67,.96-.67ZM1.47,16.51c0,.19,.13,.38,.38,.38,.54,0,4.7-3.62,4.7-4.16,0-.16-.54-.06-.54-.42,0-.19-.1-.38-.35-.38-1.38,0-4.19,3.01-4.19,4.58Z"/><path class="cls-2" d="M21.5,1.28c0,2.62-2.75,7.2-7.71,10.85-.29,.38-.67,1.92-.67,2.34,0,.06,0,.13,.03,.13,.19,0,.35-.22,.58-.48,1.47-1.82,3.39-3.58,5.18-3.58,.77,0,1.28,.61,1.28,1.47,0,2.69-2.46,6.21-4.77,6.21-1.09,0-1.41-.51-1.41-1.02,0-.32,.29-.64,.74-.64,.54,0,.58,.19,.86,.19,1.28,0,3.1-2.72,3.1-4.26,0-.26-.19-.51-.58-.51-.7,0-2.08,1.31-3.71,3.1-.64,.67-1.38,1.79-1.38,2.3s-.64,1.06-.96,1.06-.61-.16-.61-1.18c0-4.1,1.63-8.58,3.58-12.19,1.95-3.65,3.39-5.06,5.22-5.06,.7,0,1.22,.64,1.22,1.28Zm-5.22,4c-1.31,2.59-1.98,4.61-2.14,5.12,3.74-2.62,6.11-7.39,6.11-8.67,0-.32-.16-.48-.48-.48-.51,0-2.02,1.15-3.49,4.03Z"/><path class="cls-2" d="M26.91,11.68c0,.26,0,.99,.51,.99,1.31,0,2.56-.9,2.88-.9s.58,.22,.58,.54-.42,.7-1.47,1.18c-1.18,.54-2.66,.54-2.78,.54-.67,1.92-2.14,4.45-4.38,4.45-.9,0-1.79-.67-1.79-2.05,0-2.98,2.5-5.82,4.74-5.82,1.18,0,1.73,.58,1.73,1.06Zm-5.12,4.77c0,.58,.38,.93,.8,.93,1.25,0,2.88-2.88,2.88-3.84,0-.1-.48-.26-.48-.67,0-.32,.1-.58,.1-.7,0-.06-.03-.1-.1-.1-1.38,0-3.2,2.3-3.2,4.38Z"/><path class="cls-2" d="M38.88,13.25c.35-.48,.64-.8,.96-.8s.45,.19,.45,.45c0,.29-.13,.48-.48,.93-1.54,1.82-3.71,4.32-5.12,4.32-1.12,0-1.34-.9-1.34-1.66,0-.35,.06-.64,.06-.86-1.15,1.15-2.88,2.75-4.22,2.75-1.06,0-1.34-.8-1.34-1.31,0-1.6,1.95-3.33,1.95-5.15,0-.74,.19-1.28,.8-1.28s.67,.45,.67,.99c0,1.89-1.98,4.16-1.98,5.09,0,.26,.06,.45,.38,.45,.58,0,2.69-1.57,3.65-3.04,.48-.8,1.09-2.02,1.54-2.59,.29-.38,.61-.64,.8-.64,.54,0,.67,.32,.67,.61,0,.1-.16,.45-.38,.74-.32,.45-.8,1.22-1.02,1.98-.26,.8-.42,1.5-.42,1.98s.16,.74,.42,.74c.77,0,2.78-2.14,3.97-3.68Z"/><path class="cls-2" d="M44.41,8.35c.51,0,.64,.22,.64,.67,0,.86-1.82,.86-3.01,.86-1.73,3.1-3.26,6.46-3.26,8.13,0,.42,.19,.58,.19,.86,0,.26-.22,.64-.67,.64-.48,0-.8-.48-.8-1.28,0-1.86,1.54-5.34,3.07-8.38-.54,0-2.02,0-2.02-.67,0-.45,.32-.77,.83-.77,.48,0,.58,.22,.96,.22,.32,0,.64-.06,.99-.13,.93-1.66,1.54-2.82,2.3-3.87,.54-.77,.9-1.09,1.31-1.09s.67,.19,.67,.58-.06,.64-.67,1.12c-.54,.45-1.25,1.73-2.08,3.33,.61,0,1.06-.22,1.54-.22Z"/></g></g></svg>